<svg width="119" height="20" viewBox="0 0 119 20" fill="none" xmlns="http://www.w3.org/2000/svg">
<path d="M4.3215 15V4.158H0.285V2.052H10.971V4.158H6.915V15H4.3215ZM14.688 2.052V6.537C15.2535 5.6595 16.326 5.2305 17.5155 5.2305C18.7245 5.2305 19.6215 5.5815 20.2065 6.342C20.655 6.927 20.889 7.7655 20.889 9.0525V15H18.393V9.5985C18.393 8.7795 18.315 8.214 18.042 7.824C17.7885 7.473 17.3595 7.239 16.6965 7.239C15.0585 7.239 14.688 8.5845 14.688 10.125V15H12.192V2.052H14.688ZM27.2404 15.234C24.0034 15.234 22.3459 13.011 22.3459 10.2225C22.3459 7.2975 24.2374 5.2305 27.1819 5.2305C30.3019 5.2305 32.0959 7.4925 31.9399 10.983H24.8224C24.8809 12.387 25.8364 13.323 27.2014 13.323C28.4494 13.323 29.1709 12.699 29.4439 11.919L31.7839 12.231C31.3354 13.557 29.9509 15.234 27.2404 15.234ZM27.1234 7.044C26.0704 7.044 24.9004 7.629 24.8224 9.2475H29.4439C29.3854 7.668 28.2154 7.044 27.1234 7.044ZM33.6163 15V2.052H38.7253C41.0458 2.052 43.5028 2.6955 43.5028 5.4255C43.5028 6.654 42.7228 7.707 42.0208 8.1555C43.0153 8.6235 43.9903 9.345 43.9903 11.139C43.9903 13.986 41.6503 15 38.9398 15H33.6163ZM36.2098 9.4035V12.894H39.0763C40.5778 12.894 41.3383 12.3285 41.3383 11.139C41.3383 9.93 40.5778 9.4035 38.9593 9.4035H36.2098ZM36.2098 4.158V7.2975H38.8813C40.1098 7.2975 40.8508 6.81 40.8508 5.679C40.8508 4.6455 40.0903 4.158 38.8813 4.158H36.2098ZM47.6753 10.242C47.6753 12.192 48.5528 13.323 49.9373 13.323C51.3218 13.323 52.1993 12.192 52.1993 10.242C52.1993 8.2725 51.3218 7.1415 49.9373 7.1415C48.5528 7.1415 47.6753 8.2725 47.6753 10.242ZM45.1403 10.242C45.1403 6.81 47.4023 5.2305 49.9373 5.2305C52.4723 5.2305 54.7343 6.81 54.7343 10.242C54.7343 13.674 52.4723 15.234 49.9373 15.234C47.4023 15.234 45.1403 13.674 45.1403 10.242ZM58.8487 2.052V15H56.3527V2.052H58.8487ZM69.7519 2.052V15H67.3534L67.3339 13.986C66.7099 14.8635 65.7349 15.234 64.6429 15.234C62.2249 15.234 60.4699 13.362 60.4699 10.2225C60.4699 7.161 62.3419 5.2305 64.7989 5.2305C65.9494 5.2305 66.7294 5.718 67.2559 6.3225V2.052H69.7519ZM65.1304 13.323C66.5149 13.323 67.3534 12.1335 67.3534 10.2225C67.3534 8.3505 66.5149 7.1415 65.1304 7.1415C63.7654 7.1415 63.0049 8.4285 63.0049 10.242C63.0049 12.0555 63.7654 13.323 65.1304 13.323ZM69.354 15L69.3735 15.0195L69.4515 14.7075C70.6215 14.493 71.07 14.181 72.8445 11.3535L79.1625 1.0575C79.884 0.920999 80.703 0.608999 81.1905 0.0824991H81.2685L82.8675 12.6405C83.0235 14.025 83.2185 14.493 84.2325 14.688L84.1545 15H77.9925L78.09 14.688C79.2015 14.532 79.5915 14.2395 79.416 13.0695L79.104 10.32H74.502L74.307 10.671C72.123 14.3565 73.0005 14.532 74.19 14.688L74.0925 15H69.354ZM78.4215 3.8265L75.0675 9.4425H79.026L78.4215 3.8265ZM91.8329 4.3335H91.8524L91.0334 7.395C91.7354 5.523 92.8274 4.314 94.3094 4.314C95.7134 4.314 96.6689 5.484 96.6689 7.5705C96.6689 11.022 93.8414 15.2535 90.4679 15.2535C89.9804 15.2535 89.5709 15.1365 89.2004 14.961L88.1474 19.212H84.9884L87.7964 7.98C88.2059 6.264 88.2254 6.0885 86.9189 6.03L86.9969 5.718L91.8329 4.3335ZM90.0194 11.7045L89.4344 14.142C89.6099 14.376 89.8829 14.5515 90.2534 14.5515C92.0084 14.5515 93.2954 10.008 93.2954 7.317C93.2954 6.6345 93.1589 6.0105 92.6909 6.0105C92.0864 6.0105 91.0724 7.5315 90.0194 11.7045ZM103.221 4.3335H103.24L102.421 7.395C103.123 5.523 104.215 4.314 105.697 4.314C107.101 4.314 108.057 5.484 108.057 7.5705C108.057 11.022 105.229 15.2535 101.856 15.2535C101.368 15.2535 100.959 15.1365 100.588 14.961L99.5351 19.212H96.3761L99.1841 7.98C99.5936 6.264 99.6131 6.0885 98.3066 6.03L98.3846 5.718L103.221 4.3335ZM101.407 11.7045L100.822 14.142C100.998 14.376 101.271 14.5515 101.641 14.5515C103.396 14.5515 104.683 10.008 104.683 7.317C104.683 6.6345 104.547 6.0105 104.079 6.0105C103.474 6.0105 102.46 7.5315 101.407 11.7045ZM117.063 11.4315L117.044 11.4705C117.044 13.986 114.08 15.2925 111.837 15.2925C110.511 15.2925 109.322 15.0195 108.542 14.571L109.751 10.086H110.121C109.907 13.0695 110.472 14.532 112.013 14.532C113.124 14.532 114.255 13.947 114.255 12.9135C114.255 12.309 113.924 11.8215 113.007 11.217L112.286 10.749C111.174 9.9885 110.316 8.955 110.316 7.6485C110.316 5.484 112.812 4.3335 114.84 4.3335C116.147 4.3335 117.414 4.587 118.038 4.9575L117.102 8.409H116.79C116.849 6.303 115.952 5.055 114.606 5.055C113.456 5.055 112.91 5.679 112.91 6.3615C112.91 6.9075 113.339 7.395 113.787 7.707L114.899 8.448C116.381 9.4035 117.063 10.2615 117.063 11.4315Z" fill="black"/>
</svg>
